<svg width="58" height="50" viewBox="0 0 58 50" fill="none" xmlns="http://www.w3.org/2000/svg">
<path d="M23 36C22.9983 36.8157 19.8828 37.9321 18 38" stroke="black" stroke-width="2"/>
<path d="M35 36C35.0017 36.8157 38.1172 37.9321 40 38" stroke="black" stroke-width="2"/>
<path d="M22.9998 27.5002H13.4998C13.4998 27.5002 9.76976 26.0172 8.49985 24.0002C7.23421 21.99 6.75037 20.3626 7.00001 18.0002C7.26678 15.4759 8.00003 14.0002 9.99985 12.0002C11.9997 10.0002 14.9998 10.0002 14.9998 10.0002M14.9998 10.0002C15.1826 7.01371 15.6564 5.99994 16.9998 4.00024C18.3433 2.00054 20 0.999944 22.9998 1.00024C25.9997 1.00054 27.5 1.5 29 2.5C30.5 3.5 31.133 5.85236 32.4999 8.00024C37 5 39.5 6 41.5 7.5C43.5 9 43.5 9.5 44 11C44.5 12.5 44.5 16.5 44.5 16.5L47.9998 16.5002C47.9998 16.5002 50.3501 16.8627 51 18C51.5813 19.0172 52 20.3284 52 21.5C52 22.6716 51.7335 23.3519 51.5 24.5C51.2904 25.5304 50.7435 25.7565 50 26.5C49.2565 27.2435 47.4998 27.5002 47.4998 27.5002H35.9999M14.9998 10.0002C14.9998 10.0002 17.9998 9.5 20 10.5C22.0002 11.5 22.9998 13.0002 22.9998 13.0002" stroke="black" stroke-width="2"/>
<rect x="34" y="17" width="2" height="19" fill="black"/>
<rect x="26" y="13" width="2" height="19" fill="black"/>
<rect x="30" y="13" width="2" height="19" fill="black"/>
<rect x="22" y="17" width="2" height="19" fill="black"/>
<circle cx="15" cy="37" r="3" stroke="black" stroke-width="2"/>
<circle cx="43" cy="37" r="3" stroke="black" stroke-width="2"/>
<rect x="26" y="33" width="2" height="2" fill="black"/>
<rect x="26" y="36" width="2" height="2" fill="black"/>
<rect x="26" y="39" width="2" height="2" fill="black"/>
<rect x="48" y="36" width="2" height="2" fill="black"/>
<rect x="56" y="36" width="2" height="2" fill="black"/>
<rect x="26" y="42" width="2" height="2" fill="black"/>
<rect x="26" y="45" width="2" height="2" fill="black"/>
<rect x="26" y="48" width="2" height="2" fill="black"/>
<rect x="30" y="33" width="2" height="2" fill="black"/>
<rect x="30" y="39" width="2" height="2" fill="black"/>
<rect x="30" y="36" width="2" height="2" fill="black"/>
<rect x="52" y="36" width="2" height="2" fill="black"/>
<rect y="36" width="2" height="2" fill="black"/>
<rect x="8" y="36" width="2" height="2" fill="black"/>
<rect x="4" y="36" width="2" height="2" fill="black"/>
<rect x="30" y="42" width="2" height="2" fill="black"/>
<rect x="30" y="45" width="2" height="2" fill="black"/>
<rect x="30" y="48" width="2" height="2" fill="black"/>
</svg>
